<?xml version="1.0" encoding="UTF-8" standalone="no"?>
<!-- Created with Inkscape (http://www.inkscape.org/) -->

<svg
   xmlns:dc="http://purl.org/dc/elements/1.1/"
   xmlns:cc="http://creativecommons.org/ns#"
   xmlns:rdf="http://www.w3.org/1999/02/22-rdf-syntax-ns#"
   xmlns:svg="http://www.w3.org/2000/svg"
   xmlns="http://www.w3.org/2000/svg"
   xmlns:sodipodi="http://sodipodi.sourceforge.net/DTD/sodipodi-0.dtd"
   xmlns:inkscape="http://www.inkscape.org/namespaces/inkscape"
   width="512"
   height="512"
   viewBox="0 0 512.00001 512.00001"
   id="svg4160"
   version="1.1"
   inkscape:version="0.91 r13725"
   sodipodi:docname="satellite.svg">
  <defs
     id="defs4162" />
  <sodipodi:namedview
     id="base"
     pagecolor="#ffffff"
     bordercolor="#666666"
     borderopacity="1.0"
     inkscape:pageopacity="0.0"
     inkscape:pageshadow="2"
     inkscape:zoom="1.4"
     inkscape:cx="178.06215"
     inkscape:cy="295.6914"
     inkscape:document-units="px"
     inkscape:current-layer="layer1"
     showgrid="false"
     units="px"
     inkscape:window-width="1920"
     inkscape:window-height="1022"
     inkscape:window-x="0"
     inkscape:window-y="27"
     inkscape:window-maximized="1" />
  <metadata
     id="metadata4165">
    <rdf:RDF>
      <cc:Work
         rdf:about="">
        <dc:format>image/svg+xml</dc:format>
        <dc:type
           rdf:resource="http://purl.org/dc/dcmitype/StillImage" />
        <dc:title></dc:title>
      </cc:Work>
    </rdf:RDF>
  </metadata>
  <g
     inkscape:label="Layer 1"
     inkscape:groupmode="layer"
     id="layer1"
     transform="translate(0,-540.36216)">
    <path
       style="fill:#000000"
       d="m 83.023944,1039.0581 c 7.226228,-7.3172 26.085516,-26.3426 41.909366,-42.27869 15.82386,-15.93605 43.02315,-43.34068 60.44283,-60.89917 17.41972,-17.55851 38.43539,-38.69378 46.7015,-46.96727 l 15.0293,-15.04271 -13.5236,-12.86825 -13.52359,-12.86825 5.06762,-5.49235 c 2.7872,-3.02079 5.67248,-5.49233 6.41174,-5.49233 0.73925,0 5.37648,4.02966 10.30493,8.95481 15.63059,15.62012 18.98907,15.84181 33.45637,2.20846 5.13515,-4.83914 10.09598,-8.79845 11.02408,-8.79845 1.91872,0 25.01862,22.4515 25.01862,24.31637 0,0.66929 -2.1578,3.29518 -4.79511,5.8353 -2.63731,2.54011 -4.7951,5.28611 -4.7951,6.10221 0,2.29389 9.77479,7.40372 15.69356,8.20391 20.38017,2.7553 36.13909,-19.74421 26.16373,-37.35477 -4.61862,-8.15375 -6.16881,-8.4898 -12.20566,-2.64593 -2.8421,2.75125 -5.6966,5.00226 -6.34334,5.00226 -1.4129,0 -24.50708,-22.68237 -24.50708,-24.07005 0,-0.53384 3.55366,-4.78103 7.89702,-9.43819 8.44444,-9.05456 10.08465,-11.89926 10.08465,-17.49044 0,-5.1235 -1.37268,-7.07259 -12.33351,-17.51244 l -9.84388,-9.376 5.34441,-5.39711 c 2.93941,-2.96842 5.63666,-5.38305 5.99388,-5.36586 0.35721,0.0171 6.58343,5.64975 13.83604,12.51679 l 13.18654,12.48555 23.86695,-24.04538 c 13.12682,-13.22495 34.40935,-34.68713 47.2945,-47.69373 12.88515,-13.00659 37.7487,-38.03643 55.25234,-55.62185 17.50363,-17.58542 36.10928,-36.3232 41.34587,-41.63955 L 512,606.65894 497.83435,593.08258 c -7.7911,-7.46699 -23.25323,-22.38376 -34.3603,-33.14839 -11.10705,-10.76461 -20.65109,-19.57203 -21.20897,-19.57203 -0.55788,0 -9.34766,8.38039 -19.53285,18.62308 -29.03751,29.20146 -117.49612,118.31799 -138.20183,139.22972 -10.30276,10.40527 -18.73421,19.39267 -18.73655,19.97197 -0.002,0.57931 5.65995,6.34772 12.58289,12.81867 6.92294,6.47098 12.58716,12.28001 12.58716,12.90896 0,0.62896 -2.29266,3.52958 -5.0948,6.44583 l -5.09481,5.30225 -13.78594,-13.1607 c -7.58225,-7.2384 -22.1474,-21.28166 -32.36698,-31.20728 -10.21956,-9.92561 -19.75934,-18.65831 -21.19948,-19.40599 -3.51944,-1.82721 -8.19581,-1.71361 -12.12611,0.29455 -4.11367,2.10186 -47.27223,45.2808 -50.53398,50.55786 -1.37212,2.21978 -2.44958,6.02679 -2.45749,8.68269 -0.0144,4.63834 0.63559,5.35755 33.63085,37.24617 l 33.64489,32.51649 -5.76375,5.56455 -5.76374,5.56454 -12.82948,-12.36344 c -7.05621,-6.79991 -13.3166,-12.36346 -13.91198,-12.36346 -0.94724,0 -32.15754,31.13084 -132.096465,131.76029 -14.175539,14.27347 -30.147926,30.34591 -35.4941114,35.7165 L 0,984.83013 28.94711,1012.9732 c 15.920838,15.4786 31.645077,30.6734 34.942553,33.766 l 5.995564,5.623 z M 345.0737,1021.6008 c 85.04944,-13.3227 145.71552,-85.73036 142.15767,-169.6715 -1.66245,-39.22254 -16.86823,-76.09259 -42.7042,-103.54657 l -8.26551,-8.78314 -3.70277,3.45735 -3.70276,3.45733 6.34368,6.59322 c 45.37456,47.15938 54.97871,120.21556 23.46456,178.48856 -6.25234,11.56123 -9.23915,15.76454 -20.23623,28.47812 -25.56646,29.5571 -59.73539,47.01143 -101.87927,52.04253 -14.98321,1.7887 -24.39328,1.4982 -40.93931,-1.2636 -29.67284,-4.953 -57.57087,-17.8454 -78.27504,-36.17305 -3.9035,-3.45542 -7.44306,-6.28259 -7.8657,-6.28259 -1.40153,0 -6.01566,4.79725 -6.01506,6.25377 5.8e-4,1.38584 8.83002,9.60723 15.50645,14.43855 20.43601,14.78832 36.75249,22.50462 61.53045,29.09832 12.22236,3.2525 15.52459,3.6257 35.64756,4.0279 12.19756,0.2439 25.21852,-0.033 28.93548,-0.6152 z m -3.76116,-44.9133 c 9.48886,-1.49927 24.41422,-6.51424 34.48596,-11.58739 30.40459,-15.31479 51.77718,-41.20778 62.18175,-75.33344 2.9923,-9.81434 3.24457,-12.25064 3.24457,-31.33408 0,-19.11961 -0.24777,-21.50114 -3.25985,-31.33407 -3.65931,-11.94577 -8.65328,-23.13454 -14.24944,-31.92529 -5.0306,-7.90231 -17.86153,-23.05714 -19.52147,-23.05714 -0.72928,0 -2.56531,1.30121 -4.08007,2.89159 -3.16133,3.31918 -3.39677,2.83398 7.28749,15.01808 15.63418,17.82886 26.68156,51.9576 24.41141,75.41425 -4.78261,49.41714 -36.61618,86.91532 -84.50647,99.54394 -14.71265,3.87973 -38.42613,3.92123 -52.66411,0.0921 -18.41884,-4.95343 -31.69147,-11.64992 -46.21143,-23.31519 -3.62063,-2.90881 -7.03601,-5.28874 -7.58972,-5.28874 -0.55371,0 -2.31453,1.38211 -3.91297,3.07134 l -2.9062,3.07134 5.99388,5.39831 c 12.65509,11.39766 29.42806,20.40596 47.95109,25.75321 9.0343,2.60804 13.71347,3.18357 28.77065,3.53873 9.8899,0.23328 20.94863,-0.0447 24.57493,-0.61761 z m -4.67765,-51.45165 c 7.63382,-1.50056 20.64681,-7.09698 24.01971,-10.32999 0.90009,-0.86277 3.41109,-2.79958 5.58001,-4.30402 7.65098,-5.30706 17.65501,-20.79725 21.4742,-33.25056 2.40172,-7.83132 2.66946,-28.75026 0.46914,-36.65496 -2.1682,-7.78927 -8.04839,-18.5638 -14.33527,-26.26709 l -5.51474,-6.75719 -3.3181,3.13556 c -1.82494,1.72455 -3.3181,3.63662 -3.3181,4.24905 0,0.61242 1.86917,3.1542 4.15372,5.64841 8.80201,9.60981 14.17203,24.26117 14.06636,38.37807 -0.11436,15.27299 -5.38936,27.61026 -17.62069,41.21127 -6.61981,7.36111 -23.28332,15.16145 -35.44143,16.59045 -14.34097,1.68556 -33.59103,-4.26863 -44.8574,-13.87474 l -4.75547,-4.05466 -3.4666,3.66037 -3.46661,3.66036 5.23534,4.53049 c 15.53877,13.44674 38.503,18.87026 61.09593,14.42918 z"
       id="path4147"
       inkscape:connector-curvature="0"
       sodipodi:nodetypes="sssscccsssssssssssssssscscscsssscssssscssscssssccscccsssscsscsssscccsssssssssssscsssssssssssssscsssccsssssscssssssscccss" />
  </g>
</svg>
